
2.44k - 51.7% saving
<svg width="141" height="53" viewBox="0 0 141 53" xmlns="http://www.w3.org/2000/svg"><title>logo-man</title><defs><linearGradient x1="8.704%" y1="82.54%" x2="57.607%" y2="37.066%" id="a"><stop stop-color="#86D0F4" offset="0%"/><stop stop-color="#92D4F5" offset="9%"/><stop stop-color="#B2E0F9" offset="37%"/><stop stop-color="#BEE4FA" offset="53%"/><stop stop-color="#B1DFF9" offset="67%"/><stop stop-color="#8FD3F5" offset="94%"/><stop stop-color="#86D0F4" offset="100%"/></linearGradient><linearGradient x1="9.137%" y1="79.923%" x2="121.14%" y2="13.567%" id="b"><stop stop-color="#949FA6" offset="0%"/><stop stop-color="#9DA7AE" offset="11%"/><stop stop-color="#B5BEC2" offset="30%"/><stop stop-color="#DDE2E4" offset="54%"/><stop stop-color="#F9FCFC" offset="69%"/><stop stop-color="#E8EDEE" offset="79%"/><stop stop-color="#BBC6CB" offset="99%"/><stop stop-color="#B8C3C9" offset="100%"/></linearGradient></defs><g fill="none"><path d="M42.234 15.812c2.156 0 3.3 1.248 3.3 3.638v7.492H42.42V19.96c0-1.132-.51-1.757-1.376-1.757-1.074.018-1.828.89-1.828 2.37v6.37h-3.13V20c0-1.206-.467-1.82-1.353-1.82-1.014 0-1.8.844-1.8 2.202v6.56h-3.11V16.065h2.9v1.65c.754-1.27 1.8-1.903 3.11-1.903 1.482 0 2.478.592 3.047 1.885.69-1.193 1.974-1.916 3.352-1.885zM54.2 25.185c-.716 1.305-2.11 2.092-3.596 2.032-2.372 0-3.808-1.312-3.808-3.322 0-2.56 2.454-3.913 7.344-3.958v-.464c0-1.1-.615-1.67-1.82-1.67-1.336 0-2.097.528-2.263 1.508L47.094 19c.508-2.137 2.326-3.238 5.395-3.238 3.42 0 4.76 1.27 4.76 4.25v4.826c-.04.713.07 1.427.31 2.097h-3.15c-.13-.572-.2-1.157-.21-1.745zm-4.05-1.482c0 .89.593 1.418 1.652 1.418 1.335 0 2.35-1.06 2.35-2.54v-.96c-2.66.04-4 .8-4 2.09zm8.96-7.638h2.92V17.8c.588-1.264 1.866-2.06 3.258-2.033 2.413 0 3.533 1.335 3.533 4.125v7.05h-3.15v-6.836c0-1.334-.48-2.032-1.48-2.032-1.13 0-1.94.932-1.94 2.455v6.4h-3.14V16.06zm16.377 1.905c-1.312 0-2.01 1.183-2.01 3.513s.754 3.532 2.01 3.532c.995 0 1.734-.803 1.885-2.22l2.77.316c-.297 2.52-2.178 4.13-4.825 4.13-3.07 0-5.225-2.3-5.225-5.71 0-3.47 2.18-5.75 5.46-5.75 2.495 0 4.233 1.51 4.568 4.13l-2.857.3c-.19-1.433-.864-2.22-1.776-2.22zm5.903-5.713h3.134v5.184c.64-1.06 1.804-1.7 3.046-1.67 2.413 0 3.533 1.34 3.533 4.13v7.05H87.95v-6.84c0-1.33-.485-2.03-1.48-2.03-1.132 0-1.946.93-1.946 2.46v6.41H81.39V12.26zM98.002 27.24c-3.393 0-5.628-2.308-5.628-5.712 0-3.344 2.37-5.757 5.776-5.757 3.238 0 5.278 2.18 5.278 5.84v.45H95.77c0 1.91.868 2.94 2.372 2.94 1.013.04 1.912-.64 2.153-1.63l3.07.25c-.73 2.31-2.693 3.62-5.363 3.62zm2.116-6.96c-.023-1.587-.804-2.432-2.157-2.432-1.24 0-2.07.867-2.16 2.432h4.32zm6.472 3.254c.276.995 1.226 1.564 2.64 1.564 1.207 0 1.885-.51 1.885-1.184 0-.954-.95-.908-2.64-1.248-2.706-.527-4.063-1.395-4.063-3.363 0-2.032 1.734-3.555 4.615-3.555 2.348 0 3.936.995 4.61 2.835l-2.56.468c-.377-.86-1.078-1.22-2.18-1.22-1.1 0-1.627.38-1.627 1.08 0 .96 1.1.91 3.15 1.34 2.48.51 3.68 1.36 3.68 3.26 0 2.14-1.903 3.69-5.14 3.69-2.64 0-4.488-1.25-5.016-3.28l2.647-.362zm9.355-5.35h-1.757v-2.12h1.84l.17-3.015 2.9-.19v3.21h2.26v2.11h-2.26v4.9c0 1.22.232 1.71 1.31 1.71.402-.01.8-.07 1.188-.17V27c-.68.148-1.376.227-2.073.235-2.56 0-3.578-1.166-3.578-3.83V18.18zm11.808 9.056c-3.393 0-5.63-2.308-5.63-5.712 0-3.344 2.373-5.757 5.777-5.757 3.24 0 5.278 2.18 5.278 5.84v.45h-7.668c0 1.91.867 2.94 2.37 2.94 1.017.04 1.92-.64 2.162-1.63l3.07.25c-.725 2.31-2.656 3.62-5.36 3.62zm2.115-6.96c-.022-1.587-.803-2.432-2.16-2.432-1.248 0-2.074.867-2.157 2.432h4.32zm4.698-4.215h2.812v2.285c.487-1.735 1.44-2.583 3.017-2.583.128 0 .316.023.55.04v2.942c-.234-.03-.445-.05-.656-.05-1.61 0-2.56 1.08-2.56 2.9v5.33h-3.17V16.06zM36.28 40.722c-.645 1.342-2.013 2.184-3.502 2.156-2.077 0-3.484-1.308-3.484-3.087 0-2.29 2.06-3.48 6.116-3.48.275 0 .573 0 .87.02v-.63c0-1.5-.81-2.26-2.533-2.26-1.542 0-2.436.56-2.71 1.76l-1.445-.21c.415-1.82 1.885-2.77 4.415-2.77 2.64 0 3.77 1.27 3.77 4.02v4.36c-.023.706.07 1.408.28 2.08h-1.51c-.174-.63-.264-1.28-.266-1.93zm-1.187-3.273c-2.733 0-4.147.81-4.147 2.31 0 1.11.792 1.84 2.12 1.84 1.778 0 3.203-1.6 3.203-3.58v-.54c-.41-.04-.8-.04-1.18-.04zm4.502-8.55h1.508v1.51h-1.508V28.9zm0 3.56h1.508v10.18h-1.508V32.46zm3.513 0h1.444v2.26c.615-1.72 1.565-2.57 2.968-2.57.185 0 .37.01.554.03v1.51h-.257c-1.94 0-3.185 1.44-3.185 3.8v5.11h-1.51l-.014-10.14zm6.097 0h1.387v1.96c.694-1.49 1.78-2.26 3.13-2.26 2.216 0 3.917 2.04 3.917 5.28 0 3.32-1.77 5.36-4.02 5.36-1.24-.02-2.37-.72-2.93-1.82v5.14H49.2V32.47zm4.075 9.04c1.644 0 2.71-1.45 2.71-4.02 0-2.58-1.047-3.98-2.638-3.98-1.425 0-2.64 1.27-2.64 3.123v1.705c-.022 2.017 1.068 3.182 2.572 3.182l-.004-.017zm5.11-3.96c0-3.29 1.858-5.37 4.553-5.37 2.696 0 4.593 2.074 4.593 5.362 0 3.29-1.886 5.366-4.593 5.366s-4.554-2.1-4.554-5.365zm7.483 0c0-2.6-1.17-4.1-2.93-4.1-1.76 0-2.91 1.48-2.91 4.1s1.17 4.1 2.91 4.1c1.742 0 2.93-1.53 2.93-4.1zm2.892-5.09h1.444v2.26c.61-1.72 1.56-2.57 2.96-2.57.18 0 .37.013.55.034v1.51h-.26c-1.94 0-3.19 1.443-3.19 3.8v5.11h-1.5l-.02-10.14zm7.34 1.104h-1.783v-1.1h1.783v-2.42l1.508-.16v2.576h2.413v1.108h-2.413v5.33c0 1.887.177 2.713 1.723 2.713.353.01.706-.03 1.048-.113v1.266c-.414.1-.84.153-1.266.16-1.207 0-2.04-.355-2.613-1.208-.415-.596-.415-1.546-.415-2.85l.015-5.287z" fill="#FFF"/><path d="M31.545 47.734s-11.687-5.06-18.202-17.146c0 0-2.775 4.754-2.64 10.35.15 6.408 3.424 14.39 12.782 11.434 2.993-.938 5.744-2.52 8.06-4.638z" fill="url(#a)"/><path d="M17.95 52.824s-5.795-.792-6.873-11.63C10.02 30.54 25.697 10.608 29.732 4.486c4.38-6.647-1.508-4.148-4.147-3.394-2.64.754-18.354 6.033-24.092 19.866-5.007 12.063 3.163 28.97 16.464 31.868" fill="url(#b)"/></g></svg>