<?xml version="1.0" encoding="UTF-8" standalone="no"?>
<svg width="24px" height="24px" viewBox="0 0 24 24" version="1.1" xmlns="http://www.w3.org/2000/svg" xmlns:xlink="http://www.w3.org/1999/xlink" xmlns:sketch="http://www.bohemiancoding.com/sketch/ns">
    <!-- Generator: Sketch 3.5.1 (25234) - http://www.bohemiancoding.com/sketch -->
    <title>email</title>
    <desc>Created with Sketch.</desc>
    <defs></defs>
    <g id="Page-1" stroke="none" stroke-width="1" fill="none" fill-rule="evenodd" sketch:type="MSPage">
        <g id="email" sketch:type="MSArtboardGroup" fill="#FFFFFF">
            <path d="M24,4.5 L12,13.5 L0,4.5 C0,4.09259056 0.148146667,3.74074222 0.444444444,3.44444444 C0.740742222,3.14814667 1.09259056,3 1.5,3 L22.5,3 C22.9074094,3 23.2592578,3.14814667 23.5555556,3.44444444 C23.8518533,3.74074222 24,4.09259056 24,4.5 L24,4.5 Z M0,7.19444444 L12,16.1944444 L24,7.19444444 L24,19.5 C24,19.9074094 23.8518533,20.2592578 23.5555556,20.5555556 C23.2592578,20.8518533 22.9074094,21 22.5,21 L1.5,21 C1.09259056,21 0.740742222,20.8518533 0.444444444,20.5555556 C0.148146667,20.2592578 0,19.9074094 0,19.5 L0,7.19444444 Z" sketch:type="MSShapeGroup"></path>
        </g>
    </g>
</svg>