<svg xmlns="http://www.w3.org/2000/svg" width="239" height="228" viewBox="0 0 239 228" version="1.1"><title>favicon</title><desc>Created with Sketch.</desc><g stroke="none" stroke-width="1" fill="none" fill-rule="evenodd"><g transform="translate(-51.000000, -51.000000)" fill="#000000"><path d="M133.6 51L73.8 94.4 51 164.6 73.8 234.8 133.6 278.2 207.4 278.2 267.1 234.8 289.9 164.6 267.1 94.4 207.4 51 133.6 51ZM165.4 208.6L182.2 105.1 208.3 105.1 191.5 208.6 165.4 208.6ZM100.5 208.5L111.9 138.7 138.1 138.7 126.7 208.6 100.5 208.5ZM138.6 173.6L144.3 138.7 170.5 138.7 164.8 173.6 138.6 173.6ZM197.8 208.6L209.1 138.7 235.3 138.7 223.9 208.6 197.8 208.6Z"/></g></g></svg>