<?xml version="1.0" encoding="UTF-8" standalone="no"?>
<svg width="256px" height="256px" viewBox="0 0 256 256" version="1.1" xmlns="http://www.w3.org/2000/svg" xmlns:xlink="http://www.w3.org/1999/xlink">
    <!-- Generator: Sketch 41.2 (35397) - http://www.bohemiancoding.com/sketch -->
    <title>favicon@1x</title>
    <desc>Created with Sketch.</desc>
    <defs></defs>
    <g id="Page-1" stroke="none" stroke-width="1" fill="none" fill-rule="evenodd">
        <g id="favicon" fill="#000000">
            <g id="Group" transform="translate(56.000000, 0.000000)">
                <path d="M139.068157,114.416318 C138.993043,78.8423533 139.125386,43.2683881 139.533146,7.69792267 C139.60826,0.940094171 128.877726,0.933094866 128.802612,7.69792267 C128.391275,43.4748676 128.258932,79.2518126 128.337622,115.025258 C117.596358,115.777683 106.894439,116.999062 96.2819405,118.776885 C97.1153453,80.8756512 97.8056763,42.9744174 98.3100114,5.06968383 C98.4030094,-1.68814467 87.6724754,-1.69164432 87.5794774,5.06968383 C86.4849629,87.0420385 84.6250037,168.996895 82.0031766,250.934253 C81.7885659,257.692082 92.5190999,257.685082 92.7337106,250.934253 C94.0285284,210.436277 95.1337734,169.931302 96.0601761,129.419328 C106.740634,127.522516 117.514091,126.27664 128.337622,125.517215 C128.477119,165.574235 128.917071,205.634754 129.668209,245.688274 C129.796975,252.435604 140.527509,252.460101 140.398743,245.688274 C139.644029,205.414276 139.204077,165.136778 139.068157,124.859281 C145.549399,124.271339 145.585168,114.409319 139.068157,114.416318" id="Fill-14"></path>
                <path d="M40.0310691,76.6169309 C39.9094738,101.758325 27.2492601,121.087631 10.7695243,138.310448 C10.7051503,97.7378016 11.4990959,57.1686541 13.1549374,16.6135032 C30.0030354,32.3351851 40.1455117,53.1411322 40.0310691,76.6169309 M13.6663529,3.17326725 C13.5376049,3.07529105 13.4052807,3.01580549 13.2729564,2.92832674 C11.4883669,-1.59257533 3.14836174,-0.875249537 2.88013688,5.05581006 C-0.789179304,86.9884122 -0.953690555,168.994496 2.39375578,250.937596 C2.66555698,257.669961 13.398128,257.704952 13.1227505,250.937596 C12.2429729,229.393328 11.6206912,207.842062 11.2237184,186.290796 C17.2069211,208.324945 25.3681097,229.690756 35.7108606,250.381231 C38.7435897,256.448758 47.9991358,251.133548 44.9735593,245.083518 C29.8492532,214.822867 19.7282348,183.096072 14.2600239,149.899634 C34.7595564,129.506586 50.3773963,106.650137 50.7600638,76.6169309 C51.1320023,47.5949791 36.7122334,20.9384529 13.6663529,3.17326725" id="Fill-18"></path>
            </g>
        </g>
    </g>
</svg>