<svg width="396" height="152" viewBox="0 0 396 152" xmlns="http://www.w3.org/2000/svg" xmlns:xlink="http://www.w3.org/1999/xlink"><defs><path id="a" d="M0 .91v146.658h33.345V.91H0z"/><path id="c" d="M.927 12.75H8.71V.096H.928V12.75z"/></defs><g fill="none" fill-rule="evenodd"><g transform="translate(0 3.313)"><mask id="b" fill="#fff"><use xlink:href="#a"/></mask><path d="M27.192 4.46c-1.915 21.438-3.28 42.907-4.136 64.397l-16.57 3.59C7.056 49.545 8.353 26.663 10.4 3.82c.346-3.89-5.795-3.87-6.14 0C.062 50.655-1.035 97.66.97 144.64c.165 3.894 6.307 3.914 6.14 0-.938-21.988-1.17-43.98-.75-65.96 5.484-1.186 10.968-2.374 16.453-3.562-.778 22.178-1.003 44.376-.65 66.58.06 3.903 6.2 3.915 6.138 0-.35-22.65-.12-45.295.69-67.918.12-.024.23-.05.35-.075 3.3-.713 2.58-5.074-.1-5.817.86-21.166 2.21-42.314 4.09-63.43.35-3.892-5.79-3.867-6.13 0" fill="#282727" mask="url(#b)"/></g><path d="M64.278 7.068c-5.362-.826-10.723-1.652-16.083-2.476-2.106-.324-3.673.806-3.886 2.927-4.61 46.05-7.29 91.86-8 138.14-.03 1.81 2.01 3.65 3.88 2.92 7.24-2.79 14.4-3.75 22.15-4.19 3.92-.23 3.95-6.3 0-6.08-6.82.39-13.37 1.13-19.81 3.06.37-21.04 1.15-41.98 2.34-62.9l14.39-1.02c3.91-.28 3.95-6.358 0-6.076-4.68.334-9.36.665-14.03 1 1.24-20.463 2.86-40.913 4.87-61.406l12.52 1.93c3.864.6 5.53-5.25 1.632-5.85M94.28 140.68c-6.875-1.703-13.327-1.8-19.95-.26 3.97-43.71 6.093-87.54 6.337-131.428.023-3.91-6.116-3.913-6.14 0-.25 45.262-2.48 90.467-6.694 135.54-.18 1.91 2.12 3.52 3.89 2.926 7.032-2.36 13.71-2.71 20.933-.92 3.832.95 5.47-4.906 1.63-5.856m28.47-1.79c-5.48-2.054-10.6-2.56-16.04-1.665 1.14-42.42 2.283-84.84 3.427-127.25.104-3.91-6.035-3.91-6.14 0l-3.53 131.04c-.053 1.97 2.004 3.45 3.885 2.925 5.937-1.66 11.006-1.36 16.765.797 3.7 1.38 5.296-4.49 1.63-5.86m38.82-62.64c-.35 11-1.375 22.05-3.397 32.88-1.017 5.45-8.61 37.63-20.46 24.84-6.112-6.6-4.704-22.66-4.882-30.98-.216-9.93.265-19.85.74-29.77.904-18.83-.14-44.54 13.956-59.148.025-.027.04-.055.063-.08 10.985-3.805 12.63 27.92 12.99 31.615.99 10.173 1.315 20.413.99 30.63M143.11 9.39c-.913.53-1.35 1.295-1.447 2.095-7.823 9.17-10.328 21.066-11.95 32.812-2.166 15.673-2.672 31.736-2.993 47.538-.206 9.914-1.207 65.307 23.25 48.902 9.24-6.2 12.253-19.95 14.13-29.987 3.05-16.372 4.15-33.204 3.61-49.83-.34-10.546-.776-65.334-24.6-51.53m92.16-7c-11.254.24-22.41 1.176-33.555 2.726-3.897.543-2.24 6.394 1.63 5.856 4.7-.654 9.41-1.156 14.127-1.554-1.695 45.908-3.45 91.814-5.14 137.725-.146 3.907 5.995 3.903 6.14 0 1.695-46.057 3.46-92.112 5.153-138.17 3.872-.24 7.75-.425 11.64-.51 3.944-.08 3.956-6.153 0-6.07m35.46 66.33c-.042-20.573.034-41.15.267-61.72.044-3.91-6.095-3.913-6.14 0-.233 20.692-.31 41.385-.264 62.075-6.146.435-12.27 1.14-18.34 2.17.476-21.92.87-43.842 1.16-65.765.053-3.91-6.087-3.91-6.14 0-.626 47.41-1.69 94.81-3.19 142.2-.123 3.91 6.016 3.906 6.14 0 .74-23.42 1.372-46.85 1.902-70.28 6.11-1.096 12.275-1.817 18.467-2.256.08 23.168.33 46.338.76 69.503.074 3.9 6.213 3.913 6.14 0-.43-23.297-.684-46.59-.76-69.887 3.706-.34 3.727-6.044 0-6.04m34.03 69.913c-6.8-.4-13.194.216-19.632 1.856.31-21.92.61-43.838.907-65.757l14.21.403c3.954.114 3.95-5.96 0-6.07-4.708-.134-9.417-.267-14.126-.403.257-18.855.515-37.71.78-56.564 4.92.04 9.795-.35 14.673-1.14 3.89-.63 2.24-6.48-1.63-5.85-5.33.87-10.68 1.12-16.07.87-1.36-.06-2.24.62-2.66 1.55-.25.42-.41.91-.41 1.5-.29 20.61-.57 41.22-.86 61.838-.09.42-.09.86-.02 1.29-.33 24.134-.66 48.265-1 72.4-.03 1.91 1.99 3.53 3.88 2.925 7.26-2.314 14.33-3.2 21.94-2.75 3.94.23 3.93-5.84 0-6.073m29.76-94.34c-.07 14.542-7.316 25.724-16.746 35.686-.036-23.47.418-46.937 1.366-70.396 9.64 9.094 15.45 21.13 15.38 34.71M319.42 1.836c-.072-.058-.148-.09-.224-.143-1.02-2.615-5.793-2.2-5.946 1.23-2.1 47.395-2.194 94.83-.28 142.232.157 3.894 6.298 3.914 6.14 0-.503-12.463-.86-24.93-1.086-37.395 3.423 12.746 8.093 25.105 14.01 37.074 1.737 3.51 7.033.435 5.302-3.065-8.655-17.51-14.446-35.86-17.575-55.06 11.73-11.8 20.67-25.02 20.89-42.39.21-16.79-8.04-32.21-21.22-42.49m52.55 136.95c-6.7-.07-13.2.42-19.75 1.38.25-21.78.51-43.57.8-65.35h16.306c4.093 0 4.093-6.07 0-6.07H353.1c.26-19.29.53-38.57.824-57.85 5.49-1.2 10.95-1.83 16.61-1.84 3.95-.01 3.96-6.08 0-6.07-7.036.01-13.633.84-20.46 2.54-1.32.33-2.232 1.61-2.253 2.92-.69 45.08-1.28 90.16-1.78 135.24-.02 2.12 1.97 3.26 3.89 2.93 7.36-1.29 14.6-1.84 22.05-1.77 3.95.04 3.96-6.04 0-6.08" fill="#282727"/><g transform="translate(386.768 138.322)"><mask id="d" fill="#fff"><use xlink:href="#c"/></mask><path d="M8.257 3.09c-.133-.43-.387-.79-.685-1.104C6.984.706 5.362-.302 3.952.25 1.432 1.238.045 3.883 1.55 6.367c.214.356.53.643.88.89-.087.308-.206.616-.373.923-1.883 3.436 3.415 6.505 5.3 3.064 1.383-2.522 1.75-5.396.9-8.155" fill="#282727" mask="url(#d)"/></g></g></svg>
