<?xml version="1.0" encoding="UTF-8" standalone="no"?>
<svg width="24px" height="24px" viewBox="0 0 24 24" version="1.1" xmlns="http://www.w3.org/2000/svg" xmlns:xlink="http://www.w3.org/1999/xlink" xmlns:sketch="http://www.bohemiancoding.com/sketch/ns">
    <!-- Generator: Sketch 3.5.1 (25234) - http://www.bohemiancoding.com/sketch -->
    <title>instagram</title>
    <desc>Created with Sketch.</desc>
    <defs></defs>
    <g id="Page-1" stroke="none" stroke-width="1" fill="none" fill-rule="evenodd" sketch:type="MSPage">
        <g id="instagram" sketch:type="MSArtboardGroup" fill="#FFFFFF">
            <path d="M18,9.5 L24,9.5 L24,20.5 C24,21.4629678 23.6574108,22.2870336 22.9722222,22.9722222 C22.2870336,23.6574108 21.4629678,24 20.5,24 L3.5,24 C2.53703222,24 1.71296639,23.6574108 1.02777778,22.9722222 C0.342589167,22.2870336 0,21.4629678 0,20.5 L0,9.5 L6,9.5 C5.666665,10.2777817 5.5,11.1111067 5.5,12 C5.5,13.7963053 6.13425292,15.3286974 7.40277778,16.5972222 C8.67130264,17.8657471 10.2036947,18.5 12,18.5 C13.7963053,18.5 15.3286974,17.8657471 16.5972222,16.5972222 C17.8657471,15.3286974 18.5,13.7963053 18.5,12 C18.5,11.1111067 18.333335,10.2777817 18,9.5 L18,9.5 Z M12,16.5 C10.7407344,16.5 9.67593028,16.0648192 8.80555556,15.1944444 C7.93518083,14.3240697 7.5,13.2592656 7.5,12 C7.5,10.7592531 7.93981042,9.69907847 8.81944444,8.81944444 C9.69907847,7.93981042 10.7592531,7.5 12,7.5 C13.2407469,7.5 14.3009215,7.93981042 15.1805556,8.81944444 C16.0601896,9.69907847 16.5,10.7592531 16.5,12 C16.5,13.2407469 16.0601896,14.3009215 15.1805556,15.1805556 C14.3009215,16.0601896 13.2407469,16.5 12,16.5 L12,16.5 Z M24,3.5 L24,7.5 L16.6944444,7.5 C15.3981417,6.16666 13.8333425,5.5 12,5.5 C10.1666575,5.5 8.60185833,6.16666 7.30555556,7.5 L0,7.5 L0,3.5 C0,2.53703222 0.342589167,1.71296639 1.02777778,1.02777778 C1.71296639,0.342589167 2.53703222,0 3.5,0 L20.5,0 C21.4629678,0 22.2870336,0.342589167 22.9722222,1.02777778 C23.6574108,1.71296639 24,2.53703222 24,3.5 L24,3.5 Z" sketch:type="MSShapeGroup"></path>
        </g>
    </g>
</svg>