<?xml version="1.0" encoding="UTF-8" standalone="no"?>
<svg width="24px" height="24px" viewBox="0 0 24 24" version="1.1" xmlns="http://www.w3.org/2000/svg" xmlns:xlink="http://www.w3.org/1999/xlink" xmlns:sketch="http://www.bohemiancoding.com/sketch/ns">
    <!-- Generator: Sketch 3.5.1 (25234) - http://www.bohemiancoding.com/sketch -->
    <title>linkedin</title>
    <desc>Created with Sketch.</desc>
    <defs></defs>
    <g id="Page-1" stroke="none" stroke-width="1" fill="none" fill-rule="evenodd" sketch:type="MSPage">
        <g id="linkedin" sketch:type="MSArtboardGroup" fill="#FFFFFF">
            <path d="M0.5,8 L5.5,8 L5.5,23.5 L0.5,23.5 L0.5,8 Z M8.5,23.5 L8.5,11.5 L8.41666667,8 L13.3333333,8 L13.5,10.1388889 C14.6666725,8.37962083 16.1666575,7.5 18,7.5 C19.7963053,7.5 21.2453649,8.11573458 22.3472222,9.34722222 C23.4490796,10.5787099 24,12.2962853 24,14.5 L24,23.5 L19,23.5 L19,15 C19,13.8148089 18.7500025,12.9351881 18.25,12.3611111 C17.7499975,11.7870342 17.0925967,11.5 16.2777778,11.5 C15.4814775,11.5 14.8194471,11.7592567 14.2916667,12.2777778 C13.7638862,12.7962989 13.5,13.5370322 13.5,14.5 L13.5,23.5 L8.5,23.5 Z M2.97222222,5.5 L2.94444444,5.5 C2.07406972,5.5 1.36574347,5.23611375 0.819444444,4.70833333 C0.273145417,4.18055292 0,3.52778167 0,2.75 C0,1.95369972 0.277775,1.29629889 0.833333333,0.777777778 C1.38889167,0.259256667 2.12036583,0 3.02777778,0 C3.91667111,0 4.62962694,0.259256667 5.16666667,0.777777778 C5.70370639,1.29629889 5.98148139,1.95369972 6,2.75 C6,3.52778167 5.722225,4.18055292 5.16666667,4.70833333 C4.61110833,5.23611375 3.87963417,5.5 2.97222222,5.5 L2.97222222,5.5 Z" sketch:type="MSShapeGroup"></path>
        </g>
    </g>
</svg>