<?xml version="1.0" encoding="UTF-8" standalone="no"?>
<svg width="239px" height="228px" viewBox="0 0 239 228" version="1.1" xmlns="http://www.w3.org/2000/svg" xmlns:xlink="http://www.w3.org/1999/xlink" xmlns:sketch="http://www.bohemiancoding.com/sketch/ns">
    <!-- Generator: Sketch 3.4.4 (17249) - http://www.bohemiancoding.com/sketch -->
    <title>rh_logo</title>
    <desc>Created with Sketch.</desc>
    <defs></defs>
    <g id="Page-1" stroke="none" stroke-width="1" fill="none" fill-rule="evenodd" sketch:type="MSPage">
        <g id="&lt;!---Generator:-Adobe-Illustrator-19.0.0,-SVG-Export-Plug-In----&gt;--&lt;svg-version=&quot;1.1&quot;----xmlns=&quot;http://www.w3.org/2000/svg&quot;-xmlns:xlink=&quot;http://www.w3.org/1999/xlink&quot;-xmlns:a=&quot;http://ns.adobe.com/AdobeSVGViewerExtensions/3.0/&quot;----x=&quot;0px&quot;-y=&quot;0px&quot;-width=&quot;238.9px&quot;-height=&quot;227.2px&quot;-viewBox=&quot;0-0-238.9-227.2&quot;-enable-background=&quot;new-0-0-238.9-227.2&quot;----xml:space=&quot;preserve&quot;&gt;--&lt;defs&gt;--&lt;/defs&gt;--&lt;path-fill=&quot;#333333&quot;-d=&quot;M216.1,43.4L156.4,0H82.6L22.8,43.4L0,113.6l22.8,70.2l59.7,43.4h73.8l59.7-43.4l22.8-70.2L216.1,43.4z----M75.7,157.6l-26.2,0l11.4-69.9l26.2,0L75.7,157.6z-M87.6,122.6l5.7-34.9l26.2,0l-5.7,34.9L87.6,122.6z-M114.4,157.6l16.8-103.5---l26.2,0l-16.8,103.5L114.4,157.6z-M172.9,157.6l-26.2,0l11.4-69.9l26.2,0L172.9,157.6z&quot;/&gt;--&lt;/svg&gt;--" sketch:type="MSArtboardGroup" transform="translate(-51.000000, -51.000000)" fill="#FFFFFF">
            <path d="M133.55,51 L73.816,94.399 L51,164.62 L73.816,234.843 L133.55,278.242 L207.385,278.242 L267.119,234.843 L289.936,164.62 L267.119,94.399 L207.385,51 L133.55,51 Z M165.359,208.591 L182.187,105.086 L208.34,105.104 L191.512,208.609 L165.359,208.591 Z M100.543,208.545 L111.907,138.65 L138.061,138.669 L126.696,208.563 L100.543,208.545 Z M138.633,173.62 L144.314,138.673 L170.468,138.691 L164.786,173.638 L138.633,173.62 Z M197.766,208.613 L209.129,138.719 L235.283,138.737 L223.919,208.631 L197.766,208.613 Z" id="rh_logo" sketch:type="MSShapeGroup"></path>
        </g>
    </g>
</svg>