<?xml version="1.0" encoding="UTF-8" standalone="no"?>
<svg width="24px" height="24px" viewBox="0 0 24 24" version="1.1" xmlns="http://www.w3.org/2000/svg" xmlns:xlink="http://www.w3.org/1999/xlink" xmlns:sketch="http://www.bohemiancoding.com/sketch/ns">
    <!-- Generator: Sketch 3.5.1 (25234) - http://www.bohemiancoding.com/sketch -->
    <title>twitter</title>
    <desc>Created with Sketch.</desc>
    <defs></defs>
    <g id="Page-1" stroke="none" stroke-width="1" fill="none" fill-rule="evenodd" sketch:type="MSPage">
        <g id="twitter" sketch:type="MSArtboardGroup" fill="#FFFFFF">
            <path d="M24,4.30555556 C23.33333,5.30556056 22.5185233,6.15740389 21.5555556,6.86111111 L21.5555556,7.5 C21.5555556,8.81482139 21.3657426,10.1296231 20.9861111,11.4444444 C20.6064796,12.7592658 20.0231521,14.0231421 19.2361111,15.2361111 C18.4490701,16.4490801 17.5092647,17.5185139 16.4166667,18.4444444 C15.3240686,19.370375 14.0138965,20.1111083 12.4861111,20.6666667 C10.9583257,21.222225 9.31482361,21.5 7.55555556,21.5 C4.59257778,21.5 2.07408444,20.83334 0,19.5 C0.388890833,19.5555558 0.777775833,19.5833333 1.16666667,19.5833333 C3.29630694,19.5833333 5.33332361,18.8055633 7.27777778,17.25 C6.22221694,17.2314814 5.27315236,16.902781 4.43055556,16.2638889 C3.58795875,15.6249968 3.00926083,14.8148197 2.69444444,13.8333333 C3.00926083,13.8888892 3.31481333,13.9166667 3.61111111,13.9166667 C4.05555778,13.9166667 4.49073861,13.8611117 4.91666667,13.75 C3.78703139,13.5277767 2.84722597,12.9629675 2.09722222,12.0555556 C1.34721847,11.1481436 0.972222222,10.1018578 0.972222222,8.91666667 L0.972222222,8.86111111 C1.67592944,9.25000194 2.41666278,9.45370361 3.19444444,9.47222222 C1.73147417,8.49073583 1,7.12963833 1,5.38888889 C1,4.57407 1.22222,3.77778167 1.66666667,3 C2.90741361,4.5000075 4.40276903,5.68981042 6.15277778,6.56944444 C7.90278653,7.44907847 9.78702694,7.94444389 11.8055556,8.05555556 C11.7314811,7.74073917 11.6944444,7.36111333 11.6944444,6.91666667 C11.6944444,5.56480806 12.1712915,4.40741222 13.125,3.44444444 C14.0787085,2.48147667 15.2407339,2 16.6111111,2 C18.0185256,2 19.2222172,2.51851333 20.2222222,3.55555556 C21.3148203,3.33333222 22.3518469,2.93518806 23.3333333,2.36111111 C22.9629611,3.54630222 22.2407461,4.45370056 21.1666667,5.08333333 C22.1111158,4.97222167 23.0555508,4.712965 24,4.30555556 L24,4.30555556 Z" sketch:type="MSShapeGroup"></path>
        </g>
    </g>
</svg>