<svg width="731" height="422" viewBox="0 0 731 422" xmlns="http://www.w3.org/2000/svg"><path d="M611.87 76.692c-2.345.157-1.902-1.414-1.698-2.753.802-5.28 3.552-9.84 5.83-14.51 3.673-7.52 7.916-14.76 11.827-22.17 1.03-1.97 2.61-2.31 4.58-2.27 2.71.05 2.79 2.97 4.6 3.99-.69 1.09-1.49 2.13-2.03 3.29-5.39 11.61-12.69 22.06-20.16 32.4-.68.94-1.48 2.06-2.96 2.01M394.78 10.92c-.813-2.908.797-6.417-2.072-9.048-2.198-2.016-4.748-1.582-5.376 1.284-1.59 7.26-3.295 14.424-6.937 21.01-1.34 2.42.923 5.02 3.644 4.3 2.45-.646 4.93-1.405 5.92-4.438 1.42-4.354 3.14-8.605 4.82-13.107M125.65 69.36c-4.634-6.503-10.24-13.404-14.015-21.56-.58-1.255-1.13-2.545-1.516-3.873-.35-1.2-2.12-2.613-.35-3.632 1.12-.65 2.43-.18 3.72 1.283 5.68 6.443 10.52 13.545 15.87 20.245.76.957 1.47 1.956 2.22 2.924 1.32 1.71 2.13 3.89.57 5.434-1.6 1.59-3.93 1.4-6.51-.82M7.05 222.27c-2.14-2.07-5.917-2.247-6.87-6.03-.728-2.896.823-4.98 3.59-4.22 7.01 1.924 13.99 3.7 21.363 3.477 2.716-.083 3.92 3.14 2.04 5.246-1.69 1.895-3.49 3.767-6.57 3.254-4.42-.734-8.89-1.15-13.55-1.728M87.44 381.51c-2.167-.442-1.374-1.795-.856-2.99 2.038-4.716 5.665-8.276 8.89-12.053 5.2-6.084 10.85-11.768 16.236-17.688 1.428-1.57 2.944-1.5 4.72-.97 2.448.73 1.795 3.47 3.177 4.87-.89.85-1.878 1.61-2.654 2.55-7.777 9.47-16.993 17.37-26.336 25.13-.848.7-1.852 1.55-3.18 1.13m276.743 31.84c-1.222 2.4-.323 5.72-3.39 7.55-2.346 1.4-4.615.61-4.72-1.99-.26-6.59-.64-13.12-2.896-19.45-.83-2.33 1.677-4.23 4.055-3.16 2.14.96 4.29 2.03 4.7 4.83.58 4.023 1.47 8.01 2.26 12.21M726.55 213c1.6.123 3.398-.46 3.764 1.152.29 1.27-.7 2.683-1.658 3.74-1.088 1.2-2.506 1.88-3.99 2.442-12.257 4.64-24.225 10.06-36.72 14.07-2.39.77-4.337.407-5.595-1.314-.91-1.253-1.87-3-1.02-5.033.94-2.233 2.64-2.86 4.69-2.808 4.04.1 7.58-1.83 11.26-2.95 9.04-2.75 17.91-6.08 26.86-9.12.85-.29 1.83-.16 2.41-.2m-94.98 164.79c-14.24-4.14-22.81-13.87-28.44-26.85-.73-1.7-1.88-3.09-2.63-4.8-1.39-3.2.39-4.96 2.53-5.94 2.56-1.18 4.68.39 5.44 3 1.8 6.13 4.66 11.65 8.87 16.37 3.77 4.22 7.69 8.31 11.71 12.27 1.51 1.48 2.57 2.95 2.54 5.93" fill="#FFDF22" fill-rule="evenodd"/></svg>
